# Wavefront OBJ exported by MilkShape 3D

v 3.000000 6.000000 0.000000
v 0.000000 7.000000 0.000000
v 4.000000 -1.000000 0.000000
v 7.000000 5.000000 0.000000
v 2.000000 -4.000000 0.000000
v 0.000000 -5.000000 0.000000
v -4.000000 -1.000000 0.000000
v -3.000000 6.000000 0.000000
v -7.000000 5.000000 0.000000
v -2.000000 -4.000000 0.000000
v 3.000000 6.000000 -1.571429
v 0.000000 7.000000 -1.571429
v 4.000000 -1.000000 -1.571429
v 7.000000 5.000000 -1.571429
v 2.000000 -4.000000 -1.571429
v 0.000000 -5.000000 -1.571429
v -4.000000 -1.000000 -1.571429
v -3.000000 6.000000 -1.571429
v -7.000000 5.000000 -1.571429
v -2.000000 -4.000000 -1.571429
v 3.000000 6.000000 0.000000
v 0.000000 7.000000 0.000000
v 4.000000 -1.000000 0.000000
v 7.000000 5.000000 0.000000
v 2.000000 -4.000000 0.000000
v 0.000000 -5.000000 0.000000
v -4.000000 -1.000000 0.000000
v -3.000000 6.000000 0.000000
v -7.000000 5.000000 0.000000
v -2.000000 -4.000000 0.000000
# 30 vertices

vt 0.000000 1.000000
# 1 texture coordinates

vn 0.000000 0.000000 -1.000000
vn 0.110432 0.993884 0.000000
vn 0.267275 0.963620 0.000000
vn 0.291855 0.956463 0.000000
vn -0.110432 0.993884 0.000000
vn 0.999306 0.037247 0.000000
vn 0.854310 -0.519764 0.000000
vn 0.875138 -0.483874 0.000000
vn 0.678620 0.734490 0.000000
vn 0.593121 -0.805114 0.000000
vn 0.725329 -0.688402 0.000000
vn -0.164399 -0.986394 0.000000
vn 0.164399 -0.986394 0.000000
vn -0.291855 0.956463 0.000000
vn -0.267275 0.963620 0.000000
vn -0.678620 0.734490 0.000000
vn -0.999306 0.037247 0.000000
vn -0.875138 -0.483874 0.000000
vn -0.854310 -0.519764 0.000000
vn -0.725329 -0.688402 0.000000
vn -0.593121 -0.805114 0.000000
vn 0.000000 0.000000 1.000000
# 22 normals

g amour
s 1
f 13/1/1 12/1/1 11/1/1
f 11/1/1 14/1/1 13/1/1
f 12/1/1 13/1/1 15/1/1
f 12/1/1 15/1/1 16/1/1
f 18/1/1 12/1/1 17/1/1
f 17/1/1 19/1/1 18/1/1
f 20/1/1 17/1/1 12/1/1
f 16/1/1 20/1/1 12/1/1
s 2
f 2/1/2 1/1/3 11/1/4
f 12/1/5 2/1/2 11/1/4
f 4/1/6 3/1/7 13/1/8
f 14/1/9 4/1/6 13/1/8
f 1/1/3 4/1/6 14/1/9
f 11/1/4 1/1/3 14/1/9
f 3/1/7 5/1/10 15/1/11
f 13/1/8 3/1/7 15/1/11
f 5/1/10 6/1/12 16/1/13
f 15/1/11 5/1/10 16/1/13
f 8/1/14 2/1/2 12/1/5
f 18/1/15 8/1/14 12/1/5
f 9/1/16 8/1/14 18/1/15
f 19/1/17 9/1/16 18/1/15
f 7/1/18 9/1/16 19/1/17
f 17/1/19 7/1/18 19/1/17
f 10/1/20 7/1/18 17/1/19
f 20/1/21 10/1/20 17/1/19
f 6/1/12 10/1/20 20/1/21
f 16/1/13 6/1/12 20/1/21
s 1
f 21/1/22 22/1/22 23/1/22
f 23/1/22 24/1/22 21/1/22
f 25/1/22 23/1/22 22/1/22
f 26/1/22 25/1/22 22/1/22
f 27/1/22 22/1/22 28/1/22
f 28/1/22 29/1/22 27/1/22
f 22/1/22 27/1/22 30/1/22
f 22/1/22 30/1/22 26/1/22
# 36 triangles in group

# 36 triangles total

