# Wavefront OBJ exported by MilkShape 3D

v -0.555385 2.684396 0.574505
v -0.555385 1.601318 0.574505
v 0.478461 2.684396 0.574505
v 0.478461 1.601318 0.574505
v 0.292369 2.954666 -0.211274
v 0.478461 1.601318 -0.508572
v -0.369292 2.954666 -0.211274
v -0.555385 1.601318 -0.508572
v -0.250193 2.364671 1.656410
v -0.250193 1.921043 1.656410
v 0.173270 2.364671 1.656410
v 0.173270 1.921043 1.656410
v 0.478461 2.684396 0.573333
v 0.478461 1.601319 0.573333
v -0.555385 2.684396 0.573333
v -0.555385 1.601319 0.573333
v -0.250193 2.351338 1.650256
v -0.250193 1.907710 1.650256
v 0.173270 2.351338 1.650256
v 0.173270 1.907710 1.650256
v 0.130924 0.522909 2.444029
v 0.130924 0.469472 2.395969
v -0.207847 0.522909 2.444029
v -0.207847 0.469472 2.395969
v -0.250193 -1.577743 2.274223
v -0.250193 -1.155828 2.137134
v 0.173270 -1.577743 2.274223
v 0.173270 -1.155828 2.137134
v 0.130924 0.526176 2.448687
v 0.130924 0.469482 2.394188
v -0.207847 0.526176 2.448687
v -0.207847 0.469482 2.394188
v -0.861197 -0.394737 1.419763
v 0.000000 -0.394737 1.664411
v -0.506199 0.833835 1.351563
v 0.000000 1.695434 0.887513
v 0.506199 0.833835 1.351563
v 0.861198 -0.394737 1.419763
v -1.325245 0.364562 0.845363
v -1.393446 0.897059 0.026316
v -0.819047 1.593134 0.532515
v -0.819047 1.593134 -0.479883
v 0.000000 1.695434 -0.834881
v 0.000000 2.062407 0.026316
v 0.819048 1.593134 0.532515
v 0.819048 1.593134 -0.479883
v 1.393447 0.897059 0.026316
v 1.325247 0.364562 0.845363
v 1.638095 -0.394737 0.026316
v 1.393447 -1.686533 0.026316
v 1.325247 -1.154036 0.845363
v 1.325247 0.364562 -0.792731
v 0.861198 -0.394737 -1.367130
v 1.325247 -1.154036 -0.792731
v 0.506199 0.833835 -1.298930
v -0.506199 0.833835 -1.298930
v -0.861197 -0.394737 -1.367130
v 0.000000 -0.394737 -1.611778
v -0.506199 -1.623308 -1.298930
v 0.000000 -2.484906 -0.834881
v 0.506199 -1.623308 -1.298930
v 0.819048 -2.382606 -0.479883
v 0.000000 -2.851878 0.026316
v 0.000000 -2.484906 0.887513
v 0.819048 -2.382606 0.532515
v -0.819047 -2.382606 -0.479883
v -1.393446 -1.686533 0.026316
v -0.819047 -2.382606 0.532515
v -1.325245 -1.154036 0.845363
v -0.506199 -1.623308 1.351563
v 0.506199 -1.623308 1.351563
v -1.638094 -0.394737 0.026316
v -1.325245 0.364562 -0.792731
v -1.325245 -1.154036 -0.792731
v -0.351351 1.145899 1.416766
v -0.351351 0.485574 1.657105
v 0.351351 1.145899 1.416766
v 0.351351 0.485574 1.657105
v 0.351351 0.924048 0.807235
v 0.351351 0.263723 1.047574
v -0.351351 0.924048 0.807235
v -0.351351 0.263723 1.047574
v -0.351351 -0.904069 1.671631
v -0.351351 -1.593861 1.537549
v 0.351351 -0.904069 1.671631
v 0.351351 -1.593861 1.537549
v 0.351351 -0.780300 1.034899
v 0.351351 -1.470093 0.900817
v -0.351351 -0.780300 1.034899
v -0.351351 -1.470093 0.900817
v -0.351351 0.095536 1.710983
v -0.351351 -0.607168 1.710983
v 0.351351 0.095536 1.710983
v 0.351351 -0.607168 1.710983
v 0.351351 0.095536 1.062333
v 0.351351 -0.607168 1.062334
v -0.351351 0.095536 1.062333
v -0.351351 -0.607168 1.062334
v 0.351351 1.108862 -1.392075
v 0.351351 0.448537 -1.632414
v -0.351351 1.108862 -1.392075
v -0.351351 0.448537 -1.632414
v -0.351351 0.887011 -0.782545
v -0.351351 0.226686 -1.022883
v 0.351351 0.887011 -0.782545
v 0.351351 0.226686 -1.022883
v 0.351351 -0.941106 -1.646939
v 0.351351 -1.630898 -1.512858
v -0.351351 -0.941106 -1.646939
v -0.351351 -1.630898 -1.512858
v -0.351351 -0.817337 -1.010208
v -0.351351 -1.507130 -0.876126
v 0.351351 -0.817337 -1.010208
v 0.351351 -1.507130 -0.876126
v 0.351351 0.058499 -1.686291
v 0.351351 -0.644205 -1.686292
v -0.351351 0.058499 -1.686291
v -0.351351 -0.644205 -1.686292
v -0.351351 0.058499 -1.037642
v -0.351351 -0.644205 -1.037643
v 0.351351 0.058499 -1.037642
v 0.351351 -0.644205 -1.037643
v 1.351893 1.108862 -0.456784
v 1.557903 0.448537 -0.580568
v 0.989974 1.108862 -1.059118
v 1.195985 0.448537 -1.182902
v 0.467505 0.887011 -0.745187
v 0.673515 0.226686 -0.868971
v 0.829423 0.887011 -0.142853
v 1.035434 0.226686 -0.266636
v 1.570354 -0.941106 -0.588049
v 1.455424 -1.630898 -0.518992
v 1.208435 -0.941106 -1.190382
v 1.093505 -1.630898 -1.121325
v 0.662650 -0.817337 -0.862442
v 0.547720 -1.507130 -0.793385
v 1.024569 -0.817337 -0.260108
v 0.909639 -1.507130 -0.191050
v 1.604086 0.058499 -0.608317
v 1.604087 -0.644205 -0.608317
v 1.242167 0.058499 -1.210650
v 1.242168 -0.644205 -1.210651
v 0.686166 0.058499 -0.876572
v 0.686167 -0.644205 -0.876572
v 1.048085 0.058499 -0.274238
v 1.048085 -0.644205 -0.274238
v 1.351893 1.108862 0.444736
v 1.557903 0.448537 0.568520
v 0.989974 1.108862 1.047069
v 1.195984 0.448537 1.170853
v 0.467504 0.887011 0.733139
v 0.673514 0.226686 0.856923
v 0.829423 0.887011 0.130804
v 1.035434 0.226686 0.254588
v 1.570354 -0.941106 0.576000
v 1.455424 -1.630898 0.506944
v 1.208435 -0.941106 1.178334
v 1.093504 -1.630898 1.109277
v 0.662650 -0.817337 0.850394
v 0.547719 -1.507130 0.781337
v 1.024569 -0.817337 0.248060
v 0.909638 -1.507130 0.179002
v 1.604086 0.058499 0.596269
v 1.604087 -0.644205 0.596269
v 1.242167 0.058499 1.198602
v 1.242168 -0.644205 1.198603
v 0.686166 0.058499 0.864524
v 0.686166 -0.644205 0.864524
v 1.048085 0.058499 0.262189
v 1.048085 -0.644205 0.262190
v -1.351893 1.108862 0.444736
v -1.557903 0.448537 0.568520
v -0.989974 1.108862 1.047069
v -1.195984 0.448537 1.170853
v -0.467504 0.887011 0.733139
v -0.673514 0.226686 0.856923
v -0.829423 0.887011 0.130804
v -1.035434 0.226686 0.254588
v -1.570354 -0.941106 0.576000
v -1.455424 -1.630898 0.506944
v -1.208435 -0.941106 1.178334
v -1.093504 -1.630898 1.109277
v -0.662650 -0.817337 0.850394
v -0.547719 -1.507130 0.781337
v -1.024569 -0.817337 0.248060
v -0.909638 -1.507130 0.179002
v -1.604086 0.058499 0.596269
v -1.604087 -0.644205 0.596269
v -1.242167 0.058499 1.198602
v -1.242168 -0.644205 1.198603
v -0.686166 0.058499 0.864524
v -0.686166 -0.644205 0.864524
v -1.048085 0.058499 0.262189
v -1.048085 -0.644205 0.262190
v -1.351893 1.108862 -0.444736
v -1.557903 0.448537 -0.568520
v -0.989974 1.108862 -1.047069
v -1.195984 0.448537 -1.170853
v -0.467504 0.887011 -0.733139
v -0.673514 0.226686 -0.856923
v -0.829423 0.887011 -0.130804
v -1.035434 0.226686 -0.254588
v -1.570354 -0.941106 -0.576000
v -1.455424 -1.630898 -0.506944
v -1.208435 -0.941106 -1.178334
v -1.093504 -1.630898 -1.109277
v -0.662650 -0.817337 -0.850394
v -0.547719 -1.507130 -0.781337
v -1.024569 -0.817337 -0.248060
v -0.909638 -1.507130 -0.179002
v -1.604086 0.058499 -0.596269
v -1.604087 -0.644205 -0.596269
v -1.242167 0.058499 -1.198602
v -1.242168 -0.644205 -1.198603
v -0.686166 0.058499 -0.864524
v -0.686166 -0.644205 -0.864524
v -1.048085 0.058499 -0.262189
v -1.048085 -0.644205 -0.262190
# 218 vertices

vt 0.000000 1.000000
vt 0.000000 0.000000
vt 1.000000 1.000000
vt 1.000000 0.000000
# 4 texture coordinates

vn 0.000000 0.000000 1.000000
vn 0.973084 0.000000 -0.230451
vn 0.990836 0.068733 -0.116276
vn 0.990678 0.136223 0.000000
vn 0.000000 0.214559 -0.976711
vn -0.970324 0.170986 -0.170986
vn -0.992553 0.086134 -0.086134
vn -1.000000 0.000000 0.000000
vn 0.000000 0.945628 0.325251
vn 0.000000 -1.000000 0.000000
vn 0.962517 0.000000 0.271220
vn 0.000000 0.000000 -1.000000
vn -0.962517 0.000000 0.271220
vn 0.000000 0.959084 0.283121
vn 0.000000 -0.959084 0.283121
vn 0.999271 -0.009336 0.037022
vn 0.998580 0.000000 0.053272
vn 0.999610 -0.018669 0.020758
vn 0.000000 -0.668709 0.743525
vn -0.999283 -0.007810 0.037037
vn -0.999727 -0.015616 0.017363
vn -0.998392 0.000000 0.056695
vn 0.000000 0.398221 0.917289
vn 0.000000 -0.460298 -0.887765
vn 0.000000 -0.309018 -0.951056
vn 0.998656 0.016014 0.049284
vn 0.999686 0.023604 0.008445
vn 0.998989 0.031154 -0.032408
vn 0.000000 0.693013 -0.720926
vn -0.999495 0.022016 -0.022903
vn -0.999685 0.019771 0.015484
vn -0.998396 0.017496 0.053848
vn 0.000000 -0.082639 0.996580
vn 0.000000 0.156215 -0.987723
vn -0.525759 0.000000 0.850633
vn -0.333447 0.369810 0.867210
vn -0.000000 0.749992 0.661447
vn 0.333446 0.369810 0.867210
vn 0.525758 0.000000 0.850634
vn -0.829071 0.219505 0.514256
vn -0.919455 0.393196 -0.000000
vn -0.613326 0.695653 0.374030
vn -0.613326 0.695653 -0.374030
vn -0.000000 0.749992 -0.661447
vn -0.000000 1.000000 -0.000000
vn 0.613325 0.695654 0.374030
vn 0.613325 0.695653 -0.374030
vn 0.919454 0.393197 -0.000000
vn 0.829070 0.219506 0.514257
vn 1.000000 0.000000 -0.000000
vn 0.919454 -0.393197 -0.000000
vn 0.829070 -0.219506 0.514257
vn 0.829070 0.219506 -0.514257
vn 0.525758 0.000000 -0.850634
vn 0.829070 -0.219506 -0.514257
vn 0.333446 0.369810 -0.867211
vn -0.333446 0.369810 -0.867211
vn -0.525759 0.000000 -0.850634
vn -0.333446 -0.369810 -0.867210
vn -0.000000 -0.749992 -0.661446
vn 0.333446 -0.369810 -0.867211
vn 0.613325 -0.695654 -0.374030
vn -0.000000 -0.749993 0.661446
vn 0.613325 -0.695654 0.374029
vn -0.613325 -0.695654 -0.374030
vn -0.919455 -0.393196 -0.000000
vn -0.613325 -0.695654 0.374029
vn -0.829071 -0.219505 0.514256
vn -0.333447 -0.369811 0.867210
vn 0.333446 -0.369811 0.867210
vn -0.829070 0.219505 -0.514257
vn -0.829070 -0.219505 -0.514257
vn 0.000000 0.342020 0.939693
vn 0.000000 -0.342020 -0.939692
vn 0.000000 0.939693 -0.342020
vn 0.000000 -0.939693 0.342020
vn 0.000000 -0.190808 0.981627
vn 0.000000 0.190809 -0.981627
vn 0.000000 0.981627 0.190809
vn 0.000000 -0.981627 -0.190809
vn 0.000000 0.342020 -0.939693
vn 0.000000 -0.342020 0.939693
vn 0.000000 0.939693 0.342020
vn 0.000000 -0.939693 -0.342020
vn 0.000000 -0.190808 -0.981627
vn 0.000000 0.190809 0.981627
vn 0.000000 0.981627 -0.190809
vn 0.000000 -0.981627 0.190809
vn 0.805474 0.342020 -0.483977
vn -0.515038 0.000001 -0.857168
vn -0.805474 -0.342020 0.483978
vn 0.515038 0.000000 0.857167
vn -0.293168 0.939693 0.176153
vn 0.293169 -0.939693 -0.176153
vn 0.841418 -0.190808 -0.505576
vn -0.841419 0.190809 0.505575
vn 0.163556 0.981627 -0.098274
vn -0.163555 -0.981627 0.098274
vn 0.857167 0.000001 -0.515038
vn -0.857167 -0.000001 0.515038
vn 0.805474 0.342021 0.483978
vn -0.515037 0.000001 0.857168
vn -0.805474 -0.342020 -0.483978
vn 0.515039 -0.000000 -0.857167
vn -0.293168 0.939693 -0.176153
vn 0.293168 -0.939693 0.176153
vn 0.841418 -0.190808 0.505577
vn -0.841419 0.190809 -0.505575
vn 0.163556 0.981627 0.098274
vn -0.163555 -0.981627 -0.098274
vn 0.857167 0.000001 0.515038
vn -0.857167 -0.000000 -0.515038
vn -0.805474 0.342020 0.483978
vn 0.805474 -0.342020 -0.483977
vn 0.293168 0.939693 -0.176153
vn -0.293168 -0.939693 0.176153
vn -0.841418 -0.190808 0.505576
vn 0.841419 0.190809 -0.505575
vn -0.163556 0.981627 0.098274
vn 0.163555 -0.981627 -0.098274
vn -0.805474 0.342021 -0.483978
vn 0.805474 -0.342020 0.483978
vn 0.293168 0.939693 0.176153
vn -0.293168 -0.939693 -0.176153
vn -0.841418 -0.190808 -0.505577
vn 0.841419 0.190809 0.505575
vn -0.163556 0.981627 -0.098274
vn 0.163555 -0.981627 0.098274
# 128 normals

g cek
s 1
f 1/1/1 2/2/1 3/3/1
f 2/2/1 4/4/1 3/3/1
s 2
f 3/1/2 4/2/3 5/3/3
f 4/2/3 6/4/4 5/3/3
s 1
f 5/1/5 6/2/5 7/3/5
f 6/2/5 8/4/5 7/3/5
s 2
f 7/1/6 8/2/7 1/3/7
f 8/2/7 2/4/8 1/3/7
s 3
f 7/1/9 1/2/9 5/3/9
f 1/2/9 3/4/9 5/3/9
f 2/1/10 8/2/10 4/3/10
f 8/2/10 6/4/10 4/3/10
s 1
f 9/1/1 10/2/1 11/3/1
f 10/2/1 12/4/1 11/3/1
s 2
f 11/1/11 12/2/11 13/3/11
f 12/2/11 14/4/11 13/3/11
s 1
f 13/1/12 14/2/12 15/3/12
f 14/2/12 16/4/12 15/3/12
s 2
f 15/1/13 16/2/13 9/3/13
f 16/2/13 10/4/13 9/3/13
s 3
f 15/1/14 9/2/14 13/3/14
f 9/2/14 11/4/14 13/3/14
f 10/1/15 16/2/15 12/3/15
f 16/2/15 14/4/15 12/3/15
s 1
f 19/3/12 18/2/12 17/1/12
f 19/3/12 20/4/12 18/2/12
s 2
f 21/3/16 20/2/16 19/1/17
f 21/3/16 22/4/18 20/2/16
s 1
f 23/3/19 22/2/19 21/1/19
f 23/3/19 24/4/19 22/2/19
s 2
f 17/3/20 24/2/20 23/1/21
f 17/3/20 18/4/22 24/2/20
s 3
f 21/3/23 17/2/23 23/1/23
f 21/3/23 19/4/23 17/2/23
f 20/3/24 24/2/24 18/1/24
f 20/3/24 22/4/24 24/2/24
s 1
f 25/1/25 26/2/25 27/3/25
f 26/2/25 28/4/25 27/3/25
s 2
f 27/1/26 28/2/27 29/3/27
f 28/2/27 30/4/28 29/3/27
s 1
f 29/1/29 30/2/29 31/3/29
f 30/2/29 32/4/29 31/3/29
s 2
f 31/1/30 32/2/31 25/3/31
f 32/2/31 26/4/32 25/3/31
s 3
f 31/1/33 25/2/33 29/3/33
f 25/2/33 27/4/33 29/3/33
f 26/1/34 32/2/34 28/3/34
f 32/2/34 30/4/34 28/3/34
# 48 triangles in group

g bomba
s 1
f 33/1/35 34/1/1 35/1/36
f 36/1/37 35/1/36 37/1/38
f 38/1/39 37/1/38 34/1/1
f 35/1/36 34/1/1 37/1/38
f 33/1/35 35/1/36 39/1/40
f 40/1/41 39/1/40 41/1/42
f 36/1/37 41/1/42 35/1/36
f 39/1/40 35/1/36 41/1/42
f 40/1/41 41/1/42 42/1/43
f 43/1/44 42/1/43 44/1/45
f 36/1/37 44/1/45 41/1/42
f 42/1/43 41/1/42 44/1/45
f 36/1/37 45/1/46 44/1/45
f 43/1/44 44/1/45 46/1/47
f 47/1/48 46/1/47 45/1/46
f 44/1/45 45/1/46 46/1/47
f 36/1/37 37/1/38 45/1/46
f 47/1/48 45/1/46 48/1/49
f 38/1/39 48/1/49 37/1/38
f 45/1/46 37/1/38 48/1/49
f 47/1/48 48/1/49 49/1/50
f 50/1/51 49/1/50 51/1/52
f 38/1/39 51/1/52 48/1/49
f 49/1/50 48/1/49 51/1/52
f 47/1/48 49/1/50 52/1/53
f 53/1/54 52/1/53 54/1/55
f 50/1/51 54/1/55 49/1/50
f 52/1/53 49/1/50 54/1/55
f 43/1/44 46/1/47 55/1/56
f 53/1/54 55/1/56 52/1/53
f 47/1/48 52/1/53 46/1/47
f 55/1/56 46/1/47 52/1/53
f 43/1/44 55/1/56 56/1/57
f 57/1/58 56/1/57 58/1/12
f 53/1/54 58/1/12 55/1/56
f 56/1/57 55/1/56 58/1/12
f 57/1/58 58/1/12 59/1/59
f 60/1/60 59/1/59 61/1/61
f 53/1/54 61/1/61 58/1/12
f 59/1/59 58/1/12 61/1/61
f 60/1/60 61/1/61 62/1/62
f 50/1/51 62/1/62 54/1/55
f 53/1/54 54/1/55 61/1/61
f 62/1/62 61/1/61 54/1/55
f 60/1/60 62/1/62 63/1/10
f 64/1/63 63/1/10 65/1/64
f 50/1/51 65/1/64 62/1/62
f 63/1/10 62/1/62 65/1/64
f 60/1/60 63/1/10 66/1/65
f 67/1/66 66/1/65 68/1/67
f 64/1/63 68/1/67 63/1/10
f 66/1/65 63/1/10 68/1/67
f 67/1/66 68/1/67 69/1/68
f 33/1/35 69/1/68 70/1/69
f 64/1/63 70/1/69 68/1/67
f 69/1/68 68/1/67 70/1/69
f 33/1/35 70/1/69 34/1/1
f 38/1/39 34/1/1 71/1/70
f 64/1/63 71/1/70 70/1/69
f 34/1/1 70/1/69 71/1/70
f 64/1/63 65/1/64 71/1/70
f 38/1/39 71/1/70 51/1/52
f 50/1/51 51/1/52 65/1/64
f 71/1/70 65/1/64 51/1/52
f 40/1/41 72/1/8 39/1/40
f 33/1/35 39/1/40 69/1/68
f 67/1/66 69/1/68 72/1/8
f 39/1/40 72/1/8 69/1/68
f 40/1/41 73/1/71 72/1/8
f 67/1/66 72/1/8 74/1/72
f 57/1/58 74/1/72 73/1/71
f 72/1/8 73/1/71 74/1/72
f 40/1/41 42/1/43 73/1/71
f 57/1/58 73/1/71 56/1/57
f 43/1/44 56/1/57 42/1/43
f 73/1/71 42/1/43 56/1/57
f 60/1/60 66/1/65 59/1/59
f 57/1/58 59/1/59 74/1/72
f 67/1/66 74/1/72 66/1/65
f 59/1/59 66/1/65 74/1/72
f 75/1/73 76/2/73 77/3/73
f 76/2/73 78/4/73 77/3/73
s 2
f 77/1/50 78/2/50 79/3/50
f 78/2/50 80/4/50 79/3/50
s 1
f 79/1/74 80/2/74 81/3/74
f 80/2/74 82/4/74 81/3/74
s 2
f 81/1/8 82/2/8 75/3/8
f 82/2/8 76/4/8 75/3/8
s 3
f 81/1/75 75/2/75 79/3/75
f 75/2/75 77/4/75 79/3/75
f 76/1/76 82/2/76 78/3/76
f 82/2/76 80/4/76 78/3/76
s 1
f 83/1/77 84/2/77 85/3/77
f 84/2/77 86/4/77 85/3/77
s 2
f 85/1/50 86/2/50 87/3/50
f 86/2/50 88/4/50 87/3/50
s 1
f 87/1/78 88/2/78 89/3/78
f 88/2/78 90/4/78 89/3/78
s 2
f 89/1/8 90/2/8 83/3/8
f 90/2/8 84/4/8 83/3/8
s 3
f 89/1/79 83/2/79 87/3/79
f 83/2/79 85/4/79 87/3/79
f 84/1/80 90/2/80 86/3/80
f 90/2/80 88/4/80 86/3/80
s 1
f 91/1/1 92/2/1 93/3/1
f 92/2/1 94/4/1 93/3/1
s 2
f 93/1/50 94/2/50 95/3/50
f 94/2/50 96/4/50 95/3/50
s 1
f 95/1/12 96/2/12 97/3/12
f 96/2/12 98/4/12 97/3/12
s 2
f 97/1/8 98/2/8 91/3/8
f 98/2/8 92/4/8 91/3/8
s 3
f 97/1/45 91/2/45 95/3/45
f 91/2/45 93/4/45 95/3/45
f 92/1/10 98/2/10 94/3/10
f 98/2/10 96/4/10 94/3/10
s 1
f 99/1/81 100/2/81 101/3/81
f 100/2/81 102/4/81 101/3/81
s 2
f 101/1/8 102/2/8 103/3/8
f 102/2/8 104/4/8 103/3/8
s 1
f 103/1/82 104/2/82 105/3/82
f 104/2/82 106/4/82 105/3/82
s 2
f 105/1/50 106/2/50 99/3/50
f 106/2/50 100/4/50 99/3/50
s 3
f 105/1/83 99/2/83 103/3/83
f 99/2/83 101/4/83 103/3/83
f 100/1/84 106/2/84 102/3/84
f 106/2/84 104/4/84 102/3/84
s 1
f 107/1/85 108/2/85 109/3/85
f 108/2/85 110/4/85 109/3/85
s 2
f 109/1/8 110/2/8 111/3/8
f 110/2/8 112/4/8 111/3/8
s 1
f 111/1/86 112/2/86 113/3/86
f 112/2/86 114/4/86 113/3/86
s 2
f 113/1/50 114/2/50 107/3/50
f 114/2/50 108/4/50 107/3/50
s 3
f 113/1/87 107/2/87 111/3/87
f 107/2/87 109/4/87 111/3/87
f 108/1/88 114/2/88 110/3/88
f 114/2/88 112/4/88 110/3/88
s 1
f 115/1/12 116/2/12 117/3/12
f 116/2/12 118/4/12 117/3/12
s 2
f 117/1/8 118/2/8 119/3/8
f 118/2/8 120/4/8 119/3/8
s 1
f 119/1/1 120/2/1 121/3/1
f 120/2/1 122/4/1 121/3/1
s 2
f 121/1/50 122/2/50 115/3/50
f 122/2/50 116/4/50 115/3/50
s 3
f 121/1/45 115/2/45 119/3/45
f 115/2/45 117/4/45 119/3/45
f 116/1/10 122/2/10 118/3/10
f 122/2/10 120/4/10 118/3/10
s 1
f 123/1/89 124/2/89 125/3/89
f 124/2/89 126/4/89 125/3/89
s 2
f 125/1/90 126/2/90 127/3/90
f 126/2/90 128/4/90 127/3/90
s 1
f 127/1/91 128/2/91 129/3/91
f 128/2/91 130/4/91 129/3/91
s 2
f 129/1/92 130/2/92 123/3/92
f 130/2/92 124/4/92 123/3/92
s 3
f 129/1/93 123/2/93 127/3/93
f 123/2/93 125/4/93 127/3/93
f 124/1/94 130/2/94 126/3/94
f 130/2/94 128/4/94 126/3/94
s 1
f 131/1/95 132/2/95 133/3/95
f 132/2/95 134/4/95 133/3/95
s 2
f 133/1/90 134/2/90 135/3/90
f 134/2/90 136/4/90 135/3/90
s 1
f 135/1/96 136/2/96 137/3/96
f 136/2/96 138/4/96 137/3/96
s 2
f 137/1/92 138/2/92 131/3/92
f 138/2/92 132/4/92 131/3/92
s 3
f 137/1/97 131/2/97 135/3/97
f 131/2/97 133/4/97 135/3/97
f 132/1/98 138/2/98 134/3/98
f 138/2/98 136/4/98 134/3/98
s 1
f 139/1/99 140/2/99 141/3/99
f 140/2/99 142/4/99 141/3/99
s 2
f 141/1/90 142/2/90 143/3/90
f 142/2/90 144/4/90 143/3/90
s 1
f 143/1/100 144/2/100 145/3/100
f 144/2/100 146/4/100 145/3/100
s 2
f 145/1/92 146/2/92 139/3/92
f 146/2/92 140/4/92 139/3/92
s 3
f 145/1/45 139/2/45 143/3/45
f 139/2/45 141/4/45 143/3/45
f 140/1/10 146/2/10 142/3/10
f 146/2/10 144/4/10 142/3/10
s 1
f 149/3/101 148/2/101 147/1/101
f 149/3/101 150/4/101 148/2/101
s 2
f 151/3/102 150/2/102 149/1/102
f 151/3/102 152/4/102 150/2/102
s 1
f 153/3/103 152/2/103 151/1/103
f 153/3/103 154/4/103 152/2/103
s 2
f 147/3/104 154/2/104 153/1/104
f 147/3/104 148/4/104 154/2/104
s 3
f 151/3/105 147/2/105 153/1/105
f 151/3/105 149/4/105 147/2/105
f 150/3/106 154/2/106 148/1/106
f 150/3/106 152/4/106 154/2/106
s 1
f 157/3/107 156/2/107 155/1/107
f 157/3/107 158/4/107 156/2/107
s 2
f 159/3/102 158/2/102 157/1/102
f 159/3/102 160/4/102 158/2/102
s 1
f 161/3/108 160/2/108 159/1/108
f 161/3/108 162/4/108 160/2/108
s 2
f 155/3/104 162/2/104 161/1/104
f 155/3/104 156/4/104 162/2/104
s 3
f 159/3/109 155/2/109 161/1/109
f 159/3/109 157/4/109 155/2/109
f 158/3/110 162/2/110 156/1/110
f 158/3/110 160/4/110 162/2/110
s 1
f 165/3/111 164/2/111 163/1/111
f 165/3/111 166/4/111 164/2/111
s 2
f 167/3/102 166/2/102 165/1/102
f 167/3/102 168/4/102 166/2/102
s 1
f 169/3/112 168/2/112 167/1/112
f 169/3/112 170/4/112 168/2/112
s 2
f 163/3/104 170/2/104 169/1/104
f 163/3/104 164/4/104 170/2/104
s 3
f 167/3/45 163/2/45 169/1/45
f 167/3/45 165/4/45 163/2/45
f 166/3/10 170/2/10 164/1/10
f 166/3/10 168/4/10 170/2/10
s 1
f 171/1/113 172/2/113 173/3/113
f 172/2/113 174/4/113 173/3/113
s 2
f 173/1/92 174/2/92 175/3/92
f 174/2/92 176/4/92 175/3/92
s 1
f 175/1/114 176/2/114 177/3/114
f 176/2/114 178/4/114 177/3/114
s 2
f 177/1/90 178/2/90 171/3/90
f 178/2/90 172/4/90 171/3/90
s 3
f 177/1/115 171/2/115 175/3/115
f 171/2/115 173/4/115 175/3/115
f 172/1/116 178/2/116 174/3/116
f 178/2/116 176/4/116 174/3/116
s 1
f 179/1/117 180/2/117 181/3/117
f 180/2/117 182/4/117 181/3/117
s 2
f 181/1/92 182/2/92 183/3/92
f 182/2/92 184/4/92 183/3/92
s 1
f 183/1/118 184/2/118 185/3/118
f 184/2/118 186/4/118 185/3/118
s 2
f 185/1/90 186/2/90 179/3/90
f 186/2/90 180/4/90 179/3/90
s 3
f 185/1/119 179/2/119 183/3/119
f 179/2/119 181/4/119 183/3/119
f 180/1/120 186/2/120 182/3/120
f 186/2/120 184/4/120 182/3/120
s 1
f 187/1/100 188/2/100 189/3/100
f 188/2/100 190/4/100 189/3/100
s 2
f 189/1/92 190/2/92 191/3/92
f 190/2/92 192/4/92 191/3/92
s 1
f 191/1/99 192/2/99 193/3/99
f 192/2/99 194/4/99 193/3/99
s 2
f 193/1/90 194/2/90 187/3/90
f 194/2/90 188/4/90 187/3/90
s 3
f 193/1/45 187/2/45 191/3/45
f 187/2/45 189/4/45 191/3/45
f 188/1/10 194/2/10 190/3/10
f 194/2/10 192/4/10 190/3/10
s 1
f 197/3/121 196/2/121 195/1/121
f 197/3/121 198/4/121 196/2/121
s 2
f 199/3/104 198/2/104 197/1/104
f 199/3/104 200/4/104 198/2/104
s 1
f 201/3/122 200/2/122 199/1/122
f 201/3/122 202/4/122 200/2/122
s 2
f 195/3/102 202/2/102 201/1/102
f 195/3/102 196/4/102 202/2/102
s 3
f 199/3/123 195/2/123 201/1/123
f 199/3/123 197/4/123 195/2/123
f 198/3/124 202/2/124 196/1/124
f 198/3/124 200/4/124 202/2/124
s 1
f 205/3/125 204/2/125 203/1/125
f 205/3/125 206/4/125 204/2/125
s 2
f 207/3/104 206/2/104 205/1/104
f 207/3/104 208/4/104 206/2/104
s 1
f 209/3/126 208/2/126 207/1/126
f 209/3/126 210/4/126 208/2/126
s 2
f 203/3/102 210/2/102 209/1/102
f 203/3/102 204/4/102 210/2/102
s 3
f 207/3/127 203/2/127 209/1/127
f 207/3/127 205/4/127 203/2/127
f 206/3/128 210/2/128 204/1/128
f 206/3/128 208/4/128 210/2/128
s 1
f 213/3/112 212/2/112 211/1/112
f 213/3/112 214/4/112 212/2/112
s 2
f 215/3/104 214/2/104 213/1/104
f 215/3/104 216/4/104 214/2/104
s 1
f 217/3/111 216/2/111 215/1/111
f 217/3/111 218/4/111 216/2/111
s 2
f 211/3/102 218/2/102 217/1/102
f 211/3/102 212/4/102 218/2/102
s 3
f 215/3/45 211/2/45 217/1/45
f 215/3/45 213/4/45 211/2/45
f 214/3/10 218/2/10 212/1/10
f 214/3/10 216/4/10 218/2/10
# 296 triangles in group

# 344 triangles total

